<svg width="40" height="40" viewBox="0 0 40 40" fill="none" xmlns="http://www.w3.org/2000/svg">
<path d="M36.6569 23.8608L36.6313 23.8829L36.6305 23.8836L36.6048 23.907C36.2413 24.2389 35.9297 24.3368 35.5646 24.3275L35.5426 24.3269L35.5206 24.3267L33.6044 24.3113L30.2482 18.2737L34.3564 15.8223L37.3152 21.1687C37.3798 21.3269 37.4243 21.482 37.452 21.6358L37.4534 21.6434L37.4548 21.6509C37.57 22.2685 37.4669 22.7526 37.1345 23.249L37.0601 23.3601L36.998 23.4784C36.9876 23.4983 36.9535 23.5567 36.875 23.6517C36.86 23.6687 36.8452 23.6859 36.8306 23.7033C36.7792 23.7525 36.7215 23.805 36.6569 23.8608ZM32.1069 29.2995H32.1073L33.3751 29.3097L30.8558 33.4395C30.8554 33.44 30.8549 33.4405 30.8544 33.4411C30.8365 33.4604 30.7997 33.4967 30.737 33.5483C30.5727 33.6784 30.4974 33.6776 30.4466 33.677L25.596 33.6099L24.7959 33.5989L23.5748 31.4041L24.7054 29.2406L25.3991 29.2461L32.1069 29.2995ZM29.2661 7.36391L29.7232 8.16729L28.5385 10.3828L26.3011 10.4961L25.943 9.86735L22.5435 3.89776L21.8693 2.71389L26.2205 2.76215L26.6438 2.86076C26.7276 2.90908 26.7588 2.95554 26.7871 3.00651L26.7938 3.01876L26.8008 3.03093L29.2661 7.36391ZM15.4077 2.64223L15.5967 2.67479C15.9378 2.82291 16.1738 3.04399 16.3667 3.393L16.395 3.44424L16.4257 3.4941L17.4876 5.21929L14.2559 11.2334L10.0906 8.86354L13.0463 3.35936C13.1415 3.22896 13.249 3.10679 13.3706 2.99181C13.759 2.63404 14.1315 2.49175 14.6044 2.50024L15.1966 2.6058L15.4005 2.64215L15.4077 2.64223ZM5.41229 17.1782L5.83853 16.4353H8.14484L9.38766 18.5138L8.97711 19.2475L5.63217 25.2255L5.63212 25.2256L5.63073 25.228L5.62947 25.2303L5.04034 26.2777L2.90413 22.1241C2.90304 22.1205 2.90173 22.1161 2.90026 22.1109C2.89112 22.0783 2.87759 22.0201 2.86489 21.9311C2.83388 21.707 2.87218 21.6039 2.92508 21.5132L2.92956 21.5055L2.93399 21.4978L5.41229 17.1782ZM8.24942 32.6537C8.22916 32.6178 8.19152 32.5404 8.14915 32.4054C8.1184 32.3047 8.08807 32.1846 8.06049 32.043C8.03169 31.8904 8.01791 31.7493 8.01824 31.6167C8.0191 31.2937 8.10367 31.0209 8.25876 30.7546L8.26822 30.7383L8.27744 30.722L9.27341 28.951H15.8114L15.818 33.9987H10.1727H10.1022L10.0319 34.0027C9.98499 34.0053 9.80658 34.0018 9.45802 33.8727L9.4447 33.8677L9.43133 33.863C8.93576 33.6858 8.59926 33.3925 8.34287 32.8363L8.2999 32.7431L8.24942 32.6537ZM8.14769 32.4009C8.11748 32.3011 8.08802 32.1839 8.06127 32.0473L8.14769 32.4009Z" stroke="#6CCB69" style="stroke:#6CCB69;stroke:color(display-p3 0.4220 0.7949 0.4134);stroke-opacity:1;" stroke-width="5"/>
</svg>
